<?xml version="1.0" encoding="UTF-8"?>
<svg xmlns="http://www.w3.org/2000/svg" xmlns:xlink="http://www.w3.org/1999/xlink" width="30pt" height="30pt" viewBox="0 0 30 30" version="1.1">
<g id="surface1">
<path style=" stroke:none;fill-rule:nonzero;fill:rgb(94.901961%,94.901961%,94.901961%);fill-opacity:1;" d="M 28.417969 7.195312 L 26.5 26.425781 L 3.5 26.425781 L 1.957031 7.566406 L 15 14.871094 Z M 28.417969 7.195312 "/>
<path style=" stroke:none;fill-rule:nonzero;fill:rgb(94.901961%,94.901961%,94.901961%);fill-opacity:1;" d="M 27.765625 3.574219 L 15 15.566406 L 2.234375 3.574219 Z M 27.765625 3.574219 "/>
<path style=" stroke:none;fill-rule:nonzero;fill:rgb(94.509804%,26.27451%,21.176471%);fill-opacity:1;" d="M 3.5 9.109375 L 3.5 26.425781 L 1.414062 26.425781 C 0.632812 26.425781 0 25.792969 0 25.011719 L 0 6.5625 L 2.285156 6.621094 Z M 3.5 9.109375 "/>
<path style=" stroke:none;fill-rule:nonzero;fill:rgb(82.745098%,18.039216%,16.470588%);fill-opacity:1;" d="M 30 6.5625 L 30 25.011719 C 30 25.792969 29.367188 26.425781 28.585938 26.425781 L 26.5 26.425781 L 26.5 9.109375 L 27.65625 6.386719 Z M 30 6.5625 "/>
<path style=" stroke:none;fill-rule:nonzero;fill:rgb(94.509804%,26.27451%,21.176471%);fill-opacity:1;" d="M 30 4.988281 L 30 6.5625 L 26.5 9.109375 L 15 17.492188 L 3.5 9.109375 L 0 6.5625 L 0 4.988281 C 0 4.207031 0.632812 3.574219 1.414062 3.574219 L 2.234375 3.574219 L 15 12.878906 L 27.765625 3.574219 L 28.585938 3.574219 C 29.367188 3.574219 30 4.207031 30 4.988281 Z M 30 4.988281 "/>
<path style=" stroke:none;fill-rule:nonzero;fill:rgb(82.745098%,18.039216%,16.470588%);fill-opacity:1;" d="M 3.5 9.109375 L 0 8.570312 L 0 6.5625 Z M 3.5 9.109375 "/>
</g>
</svg>
