<?xml version="1.0" encoding="UTF-8"?>
<svg xmlns="http://www.w3.org/2000/svg" xmlns:xlink="http://www.w3.org/1999/xlink" width="30pt" height="30pt" viewBox="0 0 30 30" version="1.1">
<g id="surface1">
<path style=" stroke:none;fill-rule:nonzero;fill:rgb(0%,46.666667%,71.764706%);fill-opacity:1;" d="M 27.285156 0 L 2.714844 0 C 1.214844 0 0 1.214844 0 2.714844 L 0 27.285156 C 0 28.785156 1.214844 30 2.714844 30 L 27.285156 30 C 28.785156 30 30 28.785156 30 27.285156 L 30 2.714844 C 30 1.214844 28.785156 0 27.285156 0 Z M 9.285156 25.902344 C 9.285156 26.339844 8.929688 26.695312 8.492188 26.695312 L 5.132812 26.695312 C 4.695312 26.695312 4.34375 26.339844 4.34375 25.902344 L 4.34375 11.8125 C 4.34375 11.375 4.695312 11.023438 5.132812 11.023438 L 8.492188 11.023438 C 8.929688 11.023438 9.285156 11.375 9.285156 11.8125 Z M 6.8125 9.695312 C 5.050781 9.695312 3.617188 8.265625 3.617188 6.5 C 3.617188 4.734375 5.050781 3.304688 6.8125 3.304688 C 8.578125 3.304688 10.007812 4.734375 10.007812 6.5 C 10.007812 8.265625 8.578125 9.695312 6.8125 9.695312 Z M 26.851562 25.96875 C 26.851562 26.367188 26.527344 26.695312 26.125 26.695312 L 22.519531 26.695312 C 22.117188 26.695312 21.792969 26.367188 21.792969 25.96875 L 21.792969 19.359375 C 21.792969 18.371094 22.082031 15.035156 19.214844 15.035156 C 16.992188 15.035156 16.539062 17.320312 16.449219 18.34375 L 16.449219 25.96875 C 16.449219 26.367188 16.125 26.695312 15.722656 26.695312 L 12.234375 26.695312 C 11.835938 26.695312 11.507812 26.367188 11.507812 25.96875 L 11.507812 11.75 C 11.507812 11.347656 11.835938 11.023438 12.234375 11.023438 L 15.722656 11.023438 C 16.125 11.023438 16.449219 11.347656 16.449219 11.75 L 16.449219 12.976562 C 17.273438 11.742188 18.5 10.785156 21.109375 10.785156 C 26.882812 10.785156 26.851562 16.183594 26.851562 19.148438 Z M 26.851562 25.96875 "/>
</g>
</svg>
