<?xml version="1.0" encoding="UTF-8"?>
<svg xmlns="http://www.w3.org/2000/svg" xmlns:xlink="http://www.w3.org/1999/xlink" width="30pt" height="30pt" viewBox="0 0 30 30" version="1.1">
<g id="surface1">
<path style=" stroke:none;fill-rule:nonzero;fill:rgb(1.176471%,60.784314%,89.803922%);fill-opacity:1;" d="M 30 15 C 30 23.285156 23.285156 30 15 30 C 6.714844 30 0 23.285156 0 15 C 0 6.714844 6.714844 0 15 0 C 23.285156 0 30 6.714844 30 15 Z M 30 15 "/>
<path style=" stroke:none;fill-rule:nonzero;fill:rgb(100%,100%,100%);fill-opacity:1;" d="M 6.863281 14.675781 L 21.328125 9.097656 C 21.996094 8.855469 22.582031 9.261719 22.367188 10.277344 L 19.90625 21.878906 C 19.722656 22.699219 19.234375 22.898438 18.550781 22.511719 L 14.800781 19.75 L 12.992188 21.492188 C 12.792969 21.691406 12.621094 21.859375 12.234375 21.859375 L 12.5 18.042969 L 19.453125 11.765625 C 19.753906 11.5 19.382812 11.347656 18.984375 11.613281 L 10.394531 17.019531 L 6.695312 15.867188 C 5.890625 15.609375 5.871094 15.0625 6.863281 14.675781 Z M 6.863281 14.675781 "/>
</g>
</svg>
