<?xml version="1.0" encoding="UTF-8"?>
<svg xmlns="http://www.w3.org/2000/svg" xmlns:xlink="http://www.w3.org/1999/xlink" width="30pt" height="30pt" viewBox="0 0 30 30" version="1.1">
<g id="surface1">
<path style=" stroke:none;fill-rule:nonzero;fill:rgb(1.176471%,66.27451%,95.686275%);fill-opacity:1;" d="M 30 5.699219 C 28.882812 6.1875 27.695312 6.511719 26.457031 6.667969 C 27.730469 5.90625 28.703125 4.710938 29.160156 3.269531 C 27.972656 3.980469 26.660156 4.480469 25.261719 4.757812 C 24.132812 3.558594 22.523438 2.8125 20.769531 2.8125 C 17.363281 2.8125 14.625 5.578125 14.625 8.964844 C 14.625 9.453125 14.664062 9.921875 14.765625 10.367188 C 9.652344 10.117188 5.128906 7.667969 2.089844 3.933594 C 1.558594 4.855469 1.246094 5.90625 1.246094 7.042969 C 1.246094 9.171875 2.34375 11.0625 3.980469 12.152344 C 2.992188 12.136719 2.019531 11.847656 1.199219 11.394531 C 1.199219 11.414062 1.199219 11.4375 1.199219 11.464844 C 1.199219 14.453125 3.332031 16.933594 6.128906 17.507812 C 5.625 17.644531 5.082031 17.710938 4.515625 17.710938 C 4.121094 17.710938 3.722656 17.6875 3.351562 17.605469 C 4.148438 20.039062 6.410156 21.832031 9.097656 21.890625 C 7.003906 23.527344 4.347656 24.511719 1.472656 24.511719 C 0.96875 24.511719 0.484375 24.488281 0 24.425781 C 2.722656 26.183594 5.953125 27.1875 9.433594 27.1875 C 20.753906 27.1875 26.941406 17.8125 26.941406 9.6875 C 26.941406 9.414062 26.929688 9.152344 26.917969 8.890625 C 28.136719 8.023438 29.164062 6.941406 30 5.699219 Z M 30 5.699219 "/>
</g>
</svg>
